<svg width="131" height="28" viewBox="0 0 131 28" fill="none" xmlns="http://www.w3.org/2000/svg">
<g clip-path="url(#clip0_620_6374)">
<path fill-rule="evenodd" clip-rule="evenodd" d="M15.9609 0.212435C15.4518 0.212435 15.0376 0.619004 15.0376 1.12344C15.0376 1.62628 15.4518 2.03444 15.9609 2.03444C16.4709 2.03444 16.8818 1.62628 16.8818 1.12344C16.8818 0.619004 16.4709 0.212435 15.9609 0.212435ZM15.9609 2.88577C15.4518 2.88577 15.0376 3.29393 15.0376 3.79757C15.0376 4.30121 15.4518 4.70857 15.9609 4.70857C16.4709 4.70857 16.8818 4.30121 16.8818 3.79757C16.8818 3.29393 16.4709 2.88577 15.9609 2.88577ZM15.9609 5.5058C15.4518 5.5058 15.0376 5.91316 15.0376 6.41839C15.0376 6.92203 15.4518 7.3278 15.9609 7.3278C16.4709 7.3278 16.8818 6.92203 16.8818 6.41839C16.8818 5.91316 16.4709 5.5058 15.9609 5.5058ZM15.9609 20.883C15.4518 20.883 15.0376 21.2928 15.0376 21.7964C15.0376 22.2993 15.4518 22.7058 15.9609 22.7058C16.4709 22.7058 16.8818 22.2993 16.8818 21.7964C16.8818 21.2928 16.4709 20.883 15.9609 20.883ZM15.9609 23.5596C15.4518 23.5596 15.0376 23.9669 15.0376 24.4698C15.0376 24.9734 15.4518 25.38 15.9609 25.38C16.4709 25.38 16.8818 24.9734 16.8818 24.4698C16.8818 23.9669 16.4709 23.5596 15.9609 23.5596ZM15.9609 26.1804C15.4518 26.1804 15.0376 26.5862 15.0376 27.0898C15.0376 27.5926 15.4518 28 15.9609 28C16.4709 28 16.8818 27.5926 16.8818 27.0898C16.8818 26.5862 16.4709 26.1804 15.9609 26.1804ZM19.1167 2.85951C19.1167 2.35508 18.7026 1.94851 18.1926 1.94851C17.6834 1.94851 17.2717 2.35508 17.2717 2.85951C17.2717 3.36236 17.6834 3.77052 18.1926 3.77052C18.7026 3.77052 19.1167 3.36236 19.1167 2.85951ZM18.5535 4.62344C18.042 4.62344 17.6295 5.03001 17.6295 5.53364C17.6295 6.03728 18.042 6.44544 18.5535 6.44544C19.0619 6.44544 19.4744 6.03728 19.4744 5.53364C19.4744 5.03001 19.0619 4.62344 18.5535 4.62344ZM18.5535 7.18061C18.042 7.18061 17.6295 7.58798 17.6295 8.09161C17.6295 8.59445 18.042 9.00341 18.5535 9.00341C19.0619 9.00341 19.4744 8.59445 19.4744 8.09161C19.4744 7.58798 19.0619 7.18061 18.5535 7.18061ZM21.1002 11.5335C21.6102 11.5335 22.0227 11.1254 22.0227 10.6217C22.0227 10.1181 21.6102 9.71073 21.1002 9.71073C20.5911 9.71073 20.177 10.1181 20.177 10.6217C20.177 11.1254 20.5911 11.5335 21.1002 11.5335ZM21.6352 12.1804C21.1252 12.1804 20.7119 12.587 20.7119 13.0906C20.7119 13.5934 21.1252 14.0008 21.6352 14.0008C22.1452 14.0008 22.5577 13.5934 22.5577 13.0906C22.5577 12.587 22.1452 12.1804 21.6352 12.1804ZM21.6352 14.6341C21.1252 14.6341 20.7119 15.0439 20.7119 15.5467C20.7119 16.0496 21.1252 16.4569 21.6352 16.4569C22.1452 16.4569 22.5577 16.0496 22.5577 15.5467C22.5577 15.0439 22.1452 14.6341 21.6352 14.6341ZM21.6352 17.8453C21.6352 17.3417 21.2219 16.9335 20.7119 16.9335C20.2027 16.9335 19.7894 17.3417 19.7894 17.8453C19.7894 18.3489 20.2027 18.7555 20.7119 18.7555C21.2219 18.7555 21.6352 18.3489 21.6352 17.8453ZM18.5535 18.7579C18.042 18.7579 17.6295 19.1645 17.6295 19.6681C17.6295 20.1709 18.042 20.5783 18.5535 20.5783C19.0619 20.5783 19.4744 20.1709 19.4744 19.6681C19.4744 19.1645 19.0619 18.7579 18.5535 18.7579ZM24.2987 10.2494C24.2987 9.74494 23.8846 9.33837 23.3762 9.33837C22.8646 9.33837 22.4538 9.74494 22.4538 10.2494C22.4538 10.7538 22.8646 11.1604 23.3762 11.1604C23.8846 11.1604 24.2987 10.7538 24.2987 10.2494ZM26.5078 11.1604C27.0178 11.1604 27.4303 10.7538 27.4303 10.2494C27.4303 9.74494 27.0178 9.33837 26.5078 9.33837C25.9987 9.33837 25.5837 9.74494 25.5837 10.2494C25.5837 10.7538 25.9987 11.1604 26.5078 11.1604ZM21.6352 19.6681C21.1252 19.6681 20.7119 20.0771 20.7119 20.5807C20.7119 21.0835 21.1252 21.4901 21.6352 21.4901C22.1452 21.4901 22.5577 21.0835 22.5577 20.5807C22.5577 20.0771 22.1452 19.6681 21.6352 19.6681ZM18.5535 23.9717C18.042 23.9717 17.6295 24.3791 17.6295 24.8819C17.6295 25.3855 18.042 25.7945 18.5535 25.7945C19.0619 25.7945 19.4744 25.3855 19.4744 24.8819C19.4744 24.3791 19.0619 23.9717 18.5535 23.9717ZM18.5535 21.2395C18.042 21.2395 17.6295 21.6461 17.6295 22.1489C17.6295 22.6525 18.042 23.0623 18.5535 23.0623C19.0619 23.0623 19.4744 22.6525 19.4744 22.1489C19.4744 21.6461 19.0619 21.2395 18.5535 21.2395ZM30.5377 9.33837C30.0278 9.33837 29.6145 9.74494 29.6145 10.2494C29.6145 10.7538 30.0278 11.1604 30.5377 11.1604C31.0477 11.1604 31.461 10.7538 31.461 10.2494C31.461 9.74494 31.0477 9.33837 30.5377 9.33837ZM21.1002 22.1489C20.5911 22.1489 20.177 22.5587 20.177 23.0623C20.177 23.5651 20.5911 23.9717 21.1002 23.9717C21.6102 23.9717 22.0227 23.5651 22.0227 23.0623C22.0227 22.5587 21.6102 22.1489 21.1002 22.1489ZM25.2212 17.8453C25.2212 17.3417 24.8079 16.9335 24.2987 16.9335C23.7895 16.9335 23.3746 17.3417 23.3746 17.8453C23.3746 18.3489 23.7895 18.7555 24.2987 18.7555C24.8079 18.7555 25.2212 18.3489 25.2212 17.8453ZM24.2987 13.0906C23.7895 13.0906 23.3746 13.498 23.3746 14.0008C23.3746 14.5044 23.7895 14.9134 24.2987 14.9134C24.8079 14.9134 25.2212 14.5044 25.2212 14.0008C25.2212 13.498 24.8079 13.0906 24.2987 13.0906ZM21.1002 3.79757C21.6102 3.79757 22.0227 3.38941 22.0227 2.88577C22.0227 2.38372 21.6102 1.97556 21.1002 1.97556C20.5911 1.97556 20.177 2.38372 20.177 2.88577C20.177 3.38941 20.5911 3.79757 21.1002 3.79757ZM24.2987 3.79757C24.8079 3.79757 25.2212 3.38941 25.2212 2.88577C25.2212 2.38372 24.8079 1.97556 24.2987 1.97556C23.7895 1.97556 23.3746 2.38372 23.3746 2.88577C23.3746 3.38941 23.7895 3.79757 24.2987 3.79757ZM29.7409 3.79757C30.2493 3.79757 30.6642 3.38941 30.6642 2.88577C30.6642 2.38372 30.2493 1.97556 29.7409 1.97556C29.231 1.97556 28.8177 2.38372 28.8177 2.88577C28.8177 3.38941 29.231 3.79757 29.7409 3.79757ZM28.3536 14.226C27.8436 14.226 27.4295 14.6317 27.4295 15.1362C27.4295 15.6422 27.8436 16.0472 28.3536 16.0472C28.8636 16.0472 29.2753 15.6422 29.2753 15.1362C29.2753 14.6317 28.8636 14.226 28.3536 14.226ZM20.7119 5.22335C20.7119 5.72698 21.1252 6.13355 21.6352 6.13355C22.1452 6.13355 22.5577 5.72698 22.5577 5.22335C22.5577 4.71971 22.1452 4.31155 21.6352 4.31155C21.1252 4.31155 20.7119 4.71971 20.7119 5.22335ZM26.5078 6.13355C27.0178 6.13355 27.4303 5.72698 27.4303 5.22335C27.4303 4.71971 27.0178 4.31155 26.5078 4.31155C25.9987 4.31155 25.5837 4.71971 25.5837 5.22335C25.5837 5.72698 25.9987 6.13355 26.5078 6.13355ZM21.1002 8.62867C21.6102 8.62867 22.0227 8.2213 22.0227 7.71925C22.0227 7.21562 21.6102 6.80586 21.1002 6.80586C20.5911 6.80586 20.177 7.21562 20.177 7.71925C20.177 8.2213 20.5911 8.62867 21.1002 8.62867ZM24.2987 8.62867C24.8079 8.62867 25.2212 8.2213 25.2212 7.71925C25.2212 7.21562 24.8079 6.80586 24.2987 6.80586C23.7895 6.80586 23.3746 7.21562 23.3746 7.71925C23.3746 8.2213 23.7895 8.62867 24.2987 8.62867ZM29.6161 8.62867C30.1244 8.62867 30.5377 8.2213 30.5377 7.71925C30.5377 7.21562 30.1244 6.80586 29.6161 6.80586C29.1061 6.80586 28.692 7.21562 28.692 7.71925C28.692 8.2213 29.1061 8.62867 29.6161 8.62867ZM25.2212 22.1489C24.7112 22.1489 24.2987 22.5587 24.2987 23.0623C24.2987 23.5651 24.7112 23.9717 25.2212 23.9717C25.7304 23.9717 26.1445 23.5651 26.1445 23.0623C26.1445 22.5587 25.7304 22.1489 25.2212 22.1489ZM26.5078 19.6681C25.9987 19.6681 25.5837 20.0771 25.5837 20.5807C25.5837 21.0835 25.9987 21.4901 26.5078 21.4901C27.0178 21.4901 27.4303 21.0835 27.4303 20.5807C27.4303 20.0771 27.0178 19.6681 26.5078 19.6681ZM0 14.0008C0 21.732 6.34619 28 14.1756 28C14.2852 28 14.3907 27.996 14.4987 27.9936V20.7796C14.3907 20.7836 14.2852 20.7939 14.1756 20.7939C10.3769 20.7939 7.29686 17.7522 7.29686 14.0008C7.29686 10.2494 10.3769 7.20846 14.1756 7.20846C14.2852 7.20846 14.3907 7.2196 14.4987 7.22437V0.00954762C14.3907 0.00636508 14.2852 0 14.1756 0C6.34619 0 0 6.26881 0 14.0008Z" fill="#1770EB"/>
<path fill-rule="evenodd" clip-rule="evenodd" d="M47.0829 5.46338V19.084H53.5067V22.5365H42.4839V5.46338H47.0829Z" fill="#1770EB"/>
<path fill-rule="evenodd" clip-rule="evenodd" d="M78.5379 5.46338V8.91595H73.6075V22.5365H68.771V8.91595H63.6111V5.46338H78.5379Z" fill="#1770EB"/>
<path fill-rule="evenodd" clip-rule="evenodd" d="M93.2349 8.91595H85.9274V12.2811H91.3391V15.7337H85.9274V19.084H93.2349V22.5365H81.2935V5.46338H93.2349V8.91595Z" fill="#1770EB"/>
<path d="M57.2959 15.4796H59.822C60.6464 15.4796 61.3147 14.8171 61.3147 13.9999C61.3147 13.1827 60.6464 12.5203 59.822 12.5203H57.2959C56.4716 12.5203 55.8033 13.1827 55.8033 13.9999C55.8033 14.8171 56.4716 15.4796 57.2959 15.4796Z" fill="#1770EB"/>
<path fill-rule="evenodd" clip-rule="evenodd" d="M126.029 5.46338H130.667V22.5365H126.029V15.9349H120.148V22.5365H115.51V5.46338H120.148V12.4824H126.029V5.46338Z" fill="#1770EB"/>
<path fill-rule="evenodd" clip-rule="evenodd" d="M113.214 10.984L109.475 12.1431C108.696 10.2925 106.854 8.99186 104.705 8.99186C101.851 8.99186 99.5376 11.285 99.5376 14.1138C99.5376 16.9426 101.851 19.2358 104.705 19.2358C106.698 19.2358 108.428 18.1167 109.289 16.4777L112.952 17.6614C111.533 20.8026 108.343 22.9919 104.635 22.9919C99.6071 22.9919 95.5312 18.9661 95.5312 14C95.5312 9.03391 99.6071 5.00812 104.635 5.00812C108.592 5.00812 111.959 7.50133 113.214 10.984Z" fill="#1770EB"/>
</g>
<defs>
<clipPath id="clip0_620_6374">
<rect width="130.667" height="28" fill="white"/>
</clipPath>
</defs>
</svg>
